<svg version="1.1" id="Layer_1" xmlns="http://www.w3.org/2000/svg" xmlns:xlink="http://www.w3.org/1999/xlink" x="0px" y="0px"
	 width="100%" viewBox="0 0 720 753" enable-background="new 0 0 720 753" xml:space="preserve">
<path fill="#000000" opacity="1.000000" stroke="none" 
	d="
M454.000000,754.000000 
	C302.666656,754.000000 151.833328,754.000000 1.000000,754.000000 
	C1.000000,503.000000 1.000000,252.000000 1.000000,1.000000 
	C241.000000,1.000000 481.000000,1.000000 721.000000,1.000000 
	C721.000000,252.000000 721.000000,503.000000 721.000000,754.000000 
	C632.166687,754.000000 543.333313,754.000000 454.000000,754.000000 
M102.499748,714.788635 
	C126.162796,714.731995 149.826370,714.753479 173.488754,714.597839 
	C199.640228,714.425781 225.798325,714.384888 251.938126,713.699402 
	C264.303162,713.375122 275.532379,708.331421 282.796631,698.344788 
	C299.665558,675.154053 315.632294,651.306213 331.919952,627.693787 
	C349.876678,601.661804 367.769531,575.585815 385.719574,549.549316 
	C391.693207,540.884460 397.757690,532.282227 404.347748,522.838867 
	C406.278595,528.201843 407.810242,532.686279 409.498810,537.110718 
	C427.437256,584.112915 445.400787,631.105591 463.357117,678.100952 
	C466.894012,687.357666 471.434052,695.722107 479.797089,701.845886 
	C496.603668,714.152344 521.166626,712.155579 535.810181,696.717407 
	C549.416138,682.373169 550.517029,665.333801 543.987671,647.465393 
	C537.888489,630.774536 531.396851,614.227417 525.112122,597.604126 
	C512.718872,564.823181 500.409790,532.010315 487.950806,499.254425 
	C477.640778,472.148254 467.003143,445.165680 456.838013,418.005829 
	C452.396545,406.138916 446.384216,396.162292 434.456970,390.186310 
	C417.030212,381.454834 394.845642,385.467529 383.033875,401.016632 
	C372.963715,414.273102 363.588562,428.066315 354.131592,441.777740 
	C339.670776,462.744019 325.481720,483.897675 311.038116,504.876007 
	C283.891846,544.303955 256.677155,583.685120 229.332809,622.975647 
	C228.190475,624.617065 225.471619,626.017822 223.453796,626.063843 
	C196.529358,626.676758 169.598984,627.027649 142.339737,627.448914 
	C142.922455,626.234497 143.331863,624.985718 144.047302,623.947815 
	C166.238663,591.752197 188.478439,559.589905 210.671707,527.395630 
	C236.153351,490.431091 261.593781,453.438110 287.059814,416.462799 
	C305.207886,390.112732 323.383484,363.781647 341.515228,337.420319 
	C347.630371,328.529633 353.934082,319.580078 354.859772,308.428162 
	C356.804474,284.999847 347.431488,264.979248 334.743408,246.300476 
	C332.540955,243.058105 328.093842,240.647964 324.188477,239.388382 
	C313.649719,235.989349 303.918518,239.912888 296.597198,250.067368 
	C288.644684,261.097260 280.972046,272.330048 273.242310,283.519287 
	C252.914978,312.944214 232.625595,342.395355 212.315979,371.832550 
	C197.025955,393.994263 181.684937,416.120911 166.446701,438.318115 
	C153.259094,457.528320 140.225128,476.843933 127.049637,496.062469 
	C107.590935,524.445984 88.105507,552.811401 68.557770,581.133667 
	C54.670750,601.254333 40.725616,621.335632 26.684950,641.349182 
	C17.870724,653.913025 13.967304,667.593201 17.743954,682.665527 
	C22.451187,701.451782 39.455963,714.510498 59.006504,714.766296 
	C73.168610,714.951660 87.335175,714.795227 102.499748,714.788635 
M489.734863,299.806244 
	C499.592468,325.422150 509.485596,351.024414 519.300232,376.656738 
	C539.045715,428.225006 558.738342,479.813477 578.472229,531.386169 
	C591.606140,565.710266 604.686890,600.055176 617.978088,634.318420 
	C622.057190,644.834106 625.730286,655.709473 631.385559,665.368347 
	C642.257751,683.937073 664.339478,689.189148 683.053406,678.844238 
	C695.891113,671.747742 704.184448,661.332825 706.294739,646.517700 
	C706.865356,642.511536 708.485229,638.176208 707.545532,634.527039 
	C705.128967,625.142761 701.807556,615.960510 698.386719,606.871033 
	C684.324585,569.506042 670.150635,532.182739 655.903259,494.887909 
	C641.304565,456.673462 626.525452,418.527954 611.911316,380.319305 
	C597.352173,342.254181 582.923157,304.139313 568.393982,266.062714 
	C554.985657,230.923553 541.538879,195.799026 528.074829,160.681168 
	C512.593445,120.301865 497.116455,79.920738 481.498291,39.594353 
	C480.140533,36.088661 478.164215,32.633289 475.753754,29.759718 
	C468.234985,20.796227 454.534973,20.837353 448.064178,29.945763 
	C438.066895,44.018112 428.283173,58.249210 418.715912,72.617424 
	C412.903900,81.345909 411.274872,91.030518 414.337158,101.231674 
	C415.676666,105.693855 417.149139,110.127831 418.808594,114.480316 
	C429.003204,141.219559 439.273651,167.929855 449.509155,194.653503 
	C462.839752,229.458115 476.161285,264.266205 489.734863,299.806244 
z"/>
<path fill="#26CEFB" opacity="1.000000" stroke="none" 
	d="
M101.999756,714.789917 
	C87.335175,714.795227 73.168610,714.951660 59.006504,714.766296 
	C39.455963,714.510498 22.451187,701.451782 17.743954,682.665527 
	C13.967304,667.593201 17.870724,653.913025 26.684950,641.349182 
	C40.725616,621.335632 54.670750,601.254333 68.557770,581.133667 
	C88.105507,552.811401 107.590935,524.445984 127.049637,496.062469 
	C140.225128,476.843933 153.259094,457.528320 166.446701,438.318115 
	C181.684937,416.120911 197.025955,393.994263 212.315979,371.832550 
	C232.625595,342.395355 252.914978,312.944214 273.242310,283.519287 
	C280.972046,272.330048 288.644684,261.097260 296.597198,250.067368 
	C303.918518,239.912888 313.649719,235.989349 324.188477,239.388382 
	C328.093842,240.647964 332.540955,243.058105 334.743408,246.300476 
	C347.431488,264.979248 356.804474,284.999847 354.859772,308.428162 
	C353.934082,319.580078 347.630371,328.529633 341.515228,337.420319 
	C323.383484,363.781647 305.207886,390.112732 287.059814,416.462799 
	C261.593781,453.438110 236.153351,490.431091 210.671707,527.395630 
	C188.478439,559.589905 166.238663,591.752197 144.047302,623.947815 
	C143.331863,624.985718 142.922455,626.234497 142.339737,627.448914 
	C169.598984,627.027649 196.529358,626.676758 223.453796,626.063843 
	C225.471619,626.017822 228.190475,624.617065 229.332809,622.975647 
	C256.677155,583.685120 283.891846,544.303955 311.038116,504.876007 
	C325.481720,483.897675 339.670776,462.744019 354.131592,441.777740 
	C363.588562,428.066315 372.963715,414.273102 383.033875,401.016632 
	C394.845642,385.467529 417.030212,381.454834 434.456970,390.186310 
	C446.384216,396.162292 452.396545,406.138916 456.838013,418.005829 
	C467.003143,445.165680 477.640778,472.148254 487.950806,499.254425 
	C500.409790,532.010315 512.718872,564.823181 525.112122,597.604126 
	C531.396851,614.227417 537.888489,630.774536 543.987671,647.465393 
	C550.517029,665.333801 549.416138,682.373169 535.810181,696.717407 
	C521.166626,712.155579 496.603668,714.152344 479.797089,701.845886 
	C471.434052,695.722107 466.894012,687.357666 463.357117,678.100952 
	C445.400787,631.105591 427.437256,584.112915 409.498810,537.110718 
	C407.810242,532.686279 406.278595,528.201843 404.347748,522.838867 
	C397.757690,532.282227 391.693207,540.884460 385.719574,549.549316 
	C367.769531,575.585815 349.876678,601.661804 331.919952,627.693787 
	C315.632294,651.306213 299.665558,675.154053 282.796631,698.344788 
	C275.532379,708.331421 264.303162,713.375122 251.938126,713.699402 
	C225.798325,714.384888 199.640228,714.425781 173.488754,714.597839 
	C149.826370,714.753479 126.162796,714.731995 101.999756,714.789917 
z"/>
<path fill="#FDFDFD" opacity="1.000000" stroke="none" 
	d="
M489.610779,299.439514 
	C476.161285,264.266205 462.839752,229.458115 449.509155,194.653503 
	C439.273651,167.929855 429.003204,141.219559 418.808594,114.480316 
	C417.149139,110.127831 415.676666,105.693855 414.337158,101.231674 
	C411.274872,91.030518 412.903900,81.345909 418.715912,72.617424 
	C428.283173,58.249210 438.066895,44.018112 448.064178,29.945763 
	C454.534973,20.837353 468.234985,20.796227 475.753754,29.759718 
	C478.164215,32.633289 480.140533,36.088661 481.498291,39.594353 
	C497.116455,79.920738 512.593445,120.301865 528.074829,160.681168 
	C541.538879,195.799026 554.985657,230.923553 568.393982,266.062714 
	C582.923157,304.139313 597.352173,342.254181 611.911316,380.319305 
	C626.525452,418.527954 641.304565,456.673462 655.903259,494.887909 
	C670.150635,532.182739 684.324585,569.506042 698.386719,606.871033 
	C701.807556,615.960510 705.128967,625.142761 707.545532,634.527039 
	C708.485229,638.176208 706.865356,642.511536 706.294739,646.517700 
	C704.184448,661.332825 695.891113,671.747742 683.053406,678.844238 
	C664.339478,689.189148 642.257751,683.937073 631.385559,665.368347 
	C625.730286,655.709473 622.057190,644.834106 617.978088,634.318420 
	C604.686890,600.055176 591.606140,565.710266 578.472229,531.386169 
	C558.738342,479.813477 539.045715,428.225006 519.300232,376.656738 
	C509.485596,351.024414 499.592468,325.422150 489.610779,299.439514 
z"/>
</svg>